<svg preserveAspectRatio="none" overflow="visible" style="display: block;" width="143" height="144" viewBox="0 0 143 144" fill="none" xmlns="http://www.w3.org/2000/svg">
<g id="Frame 204">
<path id="Ellipse 113" d="M71.5 1.5C110.15 1.5 141.5 33.0541 141.5 72C141.5 110.946 110.15 142.5 71.5 142.5C32.8499 142.5 1.5 110.946 1.5 72C1.5 33.0541 32.8499 1.5 71.5 1.5Z" stroke="#94DB8E" stroke-width="3"/>
<circle id="Ellipse 111" cx="71.2886" cy="72.085" r="56.6221" fill="#45B83C" stroke="#69C961" stroke-width="3.35042"/>
<path id="Union" d="M84.1045 66.4912C85.1513 66.4917 86.0008 67.3408 86.001 68.3877C86.001 76.1247 80.2088 82.5089 72.7246 83.4424V92.0947H75.5693C76.6163 92.095 77.4655 92.9442 77.4658 93.9912C77.4658 95.0385 76.6165 95.8874 75.5693 95.8877H66.0869C65.0395 95.8877 64.1904 95.0386 64.1904 93.9912C64.1908 92.9441 65.0397 92.0947 66.0869 92.0947H68.9316V83.4922C61.2192 82.775 55.1807 76.2875 55.1807 68.3877C55.1809 67.3405 56.0309 66.4912 57.0781 66.4912C58.1252 66.4915 58.9744 67.3406 58.9746 68.3877C58.9746 74.6723 64.0699 79.7666 70.3545 79.7666H70.8281C77.1125 79.7663 82.207 74.6721 82.207 68.3877C82.2073 67.3405 83.0572 66.4912 84.1045 66.4912ZM70.5908 48C74.1259 48 76.9912 50.8663 76.9912 54.4014V68.625C76.9912 72.1601 74.1259 75.0263 70.5908 75.0264C67.0557 75.0264 64.1895 72.1601 64.1895 68.625V54.4014C64.1895 50.8663 67.0557 48 70.5908 48Z" fill="#E5F6E3"/>
</g>
</svg>
